<svg xmlns="http://www.w3.org/2000/svg" viewBox="0 0 301 100" width="301" height="100"><path d="m132.534,51.3c-1.779-1.478-3.76-2.694-5.883-3.612-2.022-.886-3.901-2.069-5.574-3.51-.555-.453-1.011-1.015-1.341-1.651-.291-.424-.436-.931-.413-1.445-.079-1.137.379-2.245,1.238-2.994.392-.408.894-.695,1.445-.825.668-.212,1.365-.316,2.065-.31,2.76.002,5.442.908,7.638,2.58l.412.31,2.374-6.709-.1-.1c-2.271-1.755-5.78-2.58-10.425-2.58-3.271-.098-6.465,1.005-8.979,3.1-2.288,1.911-3.58,4.761-3.51,7.741,0,1.561.315,3.106.929,4.542.608,1.366,1.486,2.595,2.581,3.612.723.643,1.52,1.197,2.374,1.652,1.032.619,2.374,1.341,3.819,2.064,2.993,1.445,5.057,2.787,5.883,3.922.845.976,1.32,2.218,1.342,3.509.007.566-.099,1.127-.31,1.652-.382.748-1.053,1.308-1.858,1.548-1.153.43-2.385.606-3.612.516-2.904-.09-5.713-1.062-8.051-2.787l-.413-.309-2.89,6.915.31.207c3.098,1.92,6.677,2.922,10.321,2.89,4.333,0,7.843-1.033,10.528-3.1,1.264-.956,2.289-2.192,2.993-3.612.705-1.372,1.059-2.897,1.032-4.439-.008-1.694-.322-3.372-.928-4.954-.782-1.431-1.794-2.722-2.997-3.823Zm49.957,10.01c-.577,1.042-1.436,1.9-2.478,2.477-1.252.734-2.676,1.126-4.128,1.135-.7.006-1.397-.098-2.065-.309-.832-.237-1.537-.793-1.961-1.548-.51-.949-.725-2.028-.619-3.1v-18.472h-7.64v18.785c-.004,1.569.204,3.131.619,4.644.506,1.953,1.769,3.625,3.51,4.645,1.938,1.126,4.162,1.664,6.4,1.548,1.617-.014,3.221-.293,4.748-.825,1.234-.402,2.413-.957,3.509-1.652v1.962h7.638v-29.107h-7.638l.1,19.817h.005Zm38.6-18.166c-2.477-1.651-4.851-2.167-8.36-2.167-2.224-.049-4.402.641-6.193,1.961v-1.445h-7.638v40.254h7.638v-11.664c1.738.699,3.597,1.05,5.47,1.032,4.542,0,8.154-1.238,10.735-3.819,1.358-1.324,2.384-2.951,2.993-4.747.702-2.026,1.051-4.156,1.032-6.3.002-2.234-.31-4.458-.929-6.605-.756-2.663-2.44-4.968-4.746-6.5h-.002Zm-2.787,16.927c-.272.993-.766,1.911-1.445,2.684-.73.707-1.613,1.236-2.58,1.548-1.271.381-2.595.555-3.922.516-1.406.018-2.781-.416-3.922-1.238v-14.554c1.042-1.041,2.449-1.634,3.922-1.651,1.327-.039,2.651.135,3.922.516,1.992.478,3.547,2.033,4.025,4.025.324,1.353.497,2.738.516,4.129.032,1.36-.142,2.717-.516,4.025h0Zm27.868-6.812c-1.238-.516-2.27-.929-3.1-1.342-.619-.282-1.208-.628-1.755-1.032-.324-.221-.604-.501-.825-.826-.176-.237-.251-.533-.207-.825.021-.353.093-.702.215-1.034.167-.426.503-.762.929-.929.606-.303,1.291-.411,1.961-.31,2.136-.105,4.245.513,5.986,1.755l.413.309,2.271-5.986-.31-.207c-2.724-1.36-5.728-2.067-8.773-2.064-2.713-.115-5.39.645-7.638,2.168-.964.654-1.745,1.541-2.271,2.58-1.382,2.84-.891,6.235,1.239,8.567,1.614,1.668,3.592,2.94,5.78,3.716,1.135.516,2.064.929,2.89,1.341.586.283,1.14.63,1.651,1.033.687.593,1.067,1.467,1.032,2.374-.019.352-.088.7-.206,1.032-.214.49-.627.865-1.135,1.032-.716.304-1.5.411-2.271.309-2.392-.011-4.713-.808-6.606-2.27l-.413-.31-2.787,6.09.31.206c1.446.802,2.967,1.458,4.542,1.961,1.562.325,3.152.498,4.747.516,3.51,0,6.3-.722,8.464-2.374,1.033-.736,1.852-1.734,2.374-2.89.54-1.164.822-2.432.826-3.715.004-1.931-.611-3.812-1.755-5.368-1.541-1.61-3.456-2.816-5.574-3.509l-.004.002Zm30.449-.619l10.218-11.147h-9.289l-9.186,10.218v-22.4l-7.638,1.755v39.534h7.638v-9.7l2.787-2.89,8.36,12.592h9.089l-11.979-17.962Zm-123.34-10.735v-12.592l-7.638,1.755v17.132l-3.613,2.27v5.574l3.613-2.374v16.516h7.534v-21.365l3.823-2.477v-5.264l-3.819,2.374.1-1.549ZM23.126,63.581h-5.367c-.59-.005-1.084.444-1.136,1.032.031.576.463,1.05,1.033,1.135h6.089l10.115-8.048.207.1c.413.206.826.309,1.238.516h0c6.3,4.438,9.7,7.534,11.457,9.6.608.713,1.161,1.472,1.652,2.27h0l.206.517h-27.971c-.569.001-1.031.462-1.032,1.032.038.554.478.994,1.032,1.032h53.672c.569-.001,1.031-.463,1.032-1.032-.036-.555-.477-.997-1.032-1.035h-12.489l1.032-.62c3.989-2.527,7.4-5.866,10.012-9.8,3.39-5.185,5.184-11.25,5.161-17.444-.002-5.949-1.84-11.752-5.264-16.617-3.292-5.145-7.934-9.287-13.418-11.975-.341-.211-.735-.318-1.136-.31-.537-.032-1,.377-1.032.914-.002.039-.002.078,0,.118v28.178c-.004,1.859-.427,3.694-1.238,5.367-.823,1.785-1.98,3.397-3.407,4.748l-.309.207-.207-.31v-.1h0c-1.722-1.909-3.086-4.113-4.026-6.506-.734-1.911-1.118-3.939-1.135-5.986.014-1.752.292-3.492.825-5.161.62-2.01,1.524-3.922,2.684-5.677.311-.562.692-1.083,1.135-1.548.077-.156.182-.296.31-.413,0-.055.045-.1.1-.1h0c.204-.184.318-.448.31-.723v-11.356c0-1.755-1.239-1.755-1.239-1.755h-5.47c-1.612-.021-3.216.223-4.748.722-.881.287-1.714.705-2.472,1.239-.884.701-1.562,1.629-1.961,2.684-.296.863-.436,1.771-.413,2.683.001.767.105,1.531.309,2.271q0,.1.1.206c.138.449.563.747,1.032.723h5.883c.569-.001,1.031-.462,1.032-1.032-.04-.551-.478-.988-1.029-1.027h-5.053v-1.038h0c.018-.556.087-1.108.207-1.651.122-.45.332-.871.619-1.239.558-.715,1.311-1.253,2.168-1.548,1.428-.49,2.928-.734,4.438-.722h4.335v10.321l-.1.1c-.945,1.134-1.743,2.382-2.374,3.716-.812,1.428-1.436,2.954-1.858,4.542-.534,1.881-.812,3.825-.826,5.78h0c.001,2.293.421,4.567,1.239,6.709,1.015,2.611,2.479,5.024,4.327,7.13h0l.31.309-.31.207c-4.149,2.675-9.325,3.212-13.934,1.445l-.516-.207.309-.413c.584-.672,1.102-1.397,1.549-2.167.691-1.303,1.046-2.757,1.032-4.232h0c-.021-1.086-.194-2.163-.516-3.2-.418-1.214-1.009-2.361-1.755-3.406-.285-.49-.632-.941-1.032-1.342v-.1l-3.712-3.414.413-.206c1.239-.723,2.374-1.445,3.509-2.168,1.145-.838,2.247-1.734,3.3-2.684.516-.516.929-1.032,1.445-1.548.405-.547.751-1.135,1.033-1.754.081-.122.116-.268.1-.413.007-.464-.285-.88-.723-1.032-.1,0-.31-.1-.413-.1-.421.036-.802.265-1.032.62-.206.309-.722,1.135-.722,1.135v.1c-.677.832-1.437,1.593-2.269,2.27-1.24,1.02-2.551,1.952-3.922,2.787-.62.309-1.033.619-1.445.826l-.413.206-.1.1h0l-.31.1-.207.207-10.844-10.419v-5.161c-.097-.605-.626-1.046-1.239-1.032-.554.036-.996.478-1.032,1.032v6.09l11.56,11.147-.1.207c-.122.232-.225.474-.31.722-.337.769-.612,1.562-.825,2.374-.232.742-.405,1.501-.516,2.271-.121.786-.19,1.579-.207,2.374h0c.008,1.881.394,3.741,1.136,5.47.874,1.894,2.182,3.556,3.818,4.851l.31.31-8.669,7.019Zm12.592-11.044c-.467.841-1.058,1.606-1.754,2.27l-.207.207-.206-.207c-.31-.206-.723-.516-1.032-.722-1.149-.993-2.066-2.226-2.684-3.613-.706-1.445-1.061-3.036-1.035-4.644.018-.692.086-1.383.206-2.065.178-1.057.455-2.095.826-3.1.114-.188.184-.4.206-.619l.207-.517,3.612,3.3h0c.599.662,1.12,1.391,1.552,2.173.318.635.594,1.29.825,1.961.246.769.385,1.567.413,2.374-.137,1.11-.45,2.191-.929,3.202Zm15.582,18.269h-.31v-.306c-.09-.427-.229-.842-.413-1.238-.455-.854-1.009-1.651-1.651-2.374l-.413-.517-1.854-1.861-.1-.1c-1.579-1.496-3.234-2.91-4.959-4.235l-.826-.723h1.238c3.476-.019,6.875-1.021,9.806-2.89l.31-.206.206.309c1.222,1.583,2.293,3.276,3.2,5.058l.206.309.929,1.962.1.309c.718,1.956,1.136,4.009,1.239,6.09v.413h-6.708Zm6.2-9.806l-.207-.309c-1.012-1.855-2.187-3.616-3.509-5.264l-.206-.31.206-.206.206-.207c1.622-1.513,2.921-3.339,3.819-5.367.939-1.93,1.433-4.047,1.445-6.193v-16.514l.62.516c1.984,1.843,3.596,4.049,4.748,6.5,1.514,2.972,2.292,6.264,2.27,9.6v.207c.12,4.134-1.032,8.205-3.3,11.663-1.34,2.063-3.098,3.821-5.16,5.161-.261.195-.537.367-.826.516l-.106.207Zm2.477,8.361l-.1-.516c-.178-1.913-.63-3.79-1.342-5.574l-.1-.31.206-.206c2.899-1.694,5.343-4.067,7.122-6.915,2.339-3.737,3.521-8.083,3.397-12.49v-.206c.002-3.654-.846-7.258-2.477-10.528-1.563-3.499-4.019-6.524-7.122-8.773l-.206-.1v-7.229l.516.31c4.479,2.519,8.271,6.099,11.044,10.425,3.212,4.524,4.943,9.933,4.954,15.482.028,5.762-1.66,11.402-4.851,16.2-2.688,4.171-6.333,7.641-10.631,10.12l-.41.31Zm-.413,16.824c-.001.57-.463,1.031-1.032,1.032h-21.885c-.569-.001-1.031-.462-1.032-1.032.038-.554.478-.994,1.032-1.032h21.779c.547-.075,1.052.308,1.127.855.008.059.011.118.008.177h.003Zm10.736-7.122c.035.537-.371,1.002-.909,1.037-.043.003-.086.003-.128,0H26.119c-.569-.001-1.031-.462-1.032-1.032.038-.554.478-.994,1.032-1.032h43.144c.536-.037,1,.367,1.036.903.003.041.003.083,0,.124-.1-.1-.1,0,0,0ZM85.468,6.193H9.708c-.68.009-1.23.559-1.239,1.239v50.162c.228,21.605,17.927,38.934,39.532,38.706s38.934-17.927,38.706-39.532h0V7.432c.026-.658-.487-1.213-1.145-1.239-.031-.001-.063-.001-.094,0Zm-.929,50.369h0c.366,20.405-15.879,37.244-36.284,37.61-20.405.366-37.244-15.879-37.61-36.284-.004-.201-.006-.402-.006-.603h0V8.36h73.8v48.2l.1.002Z" fill="#fff"/><path d="m301,100H0V0h301v100Z" fill="none"/></svg>