<svg id="Warstwa_1" data-name="Warstwa 1" xmlns="http://www.w3.org/2000/svg" viewBox="0 0 600.34 100"><defs><style>.cls-1{fill:#155ca3;}</style></defs><title>Logo i napis do SVG</title><path class="cls-1" d="M118.25,70.77a6.13,6.13,0,0,0,1.13.07,10.83,10.83,0,0,0,2.69-.22,2.55,2.55,0,0,0,2.17-2c.9-2.16.82-9.57.82-12.26V39.8c0-1.87-.07-3.74-.07-5.61-.08-2.1.07-8.23-2.7-8.76a23,23,0,0,0-3.89-.07v-2.1c3.3.23,6.66.23,9.95.23,3.45,0,7-.45,10.4-.45,9,0,19,2.24,19,13.17,0,15-15.27,14.58-26.19,14.21v6.13c0,2.17.15,11.08.82,12.5a2.6,2.6,0,0,0,2.4,1.65,37,37,0,0,0,4,.07v2.09c-3.51-.07-7-.22-10.55-.22-3.29,0-6.58.15-9.95.22Zm13.47-22.52c1.57,0,3.14.08,4.71.08,7.78,0,14.14-2.55,14.14-11.38v-1c0-6.66-4.34-11-10.92-11-1.42,0-4.41.07-5.69.67A2.32,2.32,0,0,0,132.62,27c-.75,1.5-.9,8.16-.9,10.1Z" transform="translate(-0.91 -1)"/><path class="cls-1" d="M180.35,37.7c10.7,0,17.51,7.78,17.51,18.26S190.45,73.61,180,73.61c-10.1,0-17.51-7-17.51-17.13C162.47,45.56,169.13,37.7,180.35,37.7Zm.07,34c8.61,0,11.38-8.15,11.38-15.41,0-7.56-2.47-16.83-11.67-16.83s-11.6,9.35-11.6,16.83S171.67,71.74,180.42,71.74Z" transform="translate(-0.91 -1)"/><path class="cls-1" d="M254.19,40.25a3.63,3.63,0,0,0-3,1.57c-1,1.19-1.65,3.29-2.17,4.78-3.22,9.13-6.14,18.33-9.73,27.24h-2.54c-2.84-8.38-5.76-16.76-8.83-25.07-2.84,8.38-5.76,16.76-8.9,25.07h-2.47c-2-6.29-4-12.8-6.43-18.93-1.35-3.44-2-7.26-3.6-10.62a9.78,9.78,0,0,0-2-3.15h.08a4.11,4.11,0,0,0-2.62-.89V38.52c4.49.15,9.05.15,13.54,0V40.1c-1.19.22-3.74-.23-3.74,1.64,0,4.27,5.91,19.38,7.93,23.79,3.14-8.53,6.06-17.2,8.76-25.88l2.24.07c2.69,8.38,5.61,18.18,9.13,26.19,1.72-5.17,7.48-18.78,7.48-23.35,0-2.31-1.95-2.31-3.67-2.31V38.52c3.59.15,7.26.15,10.85,0V40.1Z" transform="translate(-0.91 -1)"/><path class="cls-1" d="M257,71.07a17.33,17.33,0,0,0,3.37-.15l.67-.6h-.08c.6-1.27.6-4.71.6-6.21V47.73c0-1.65.38-7.11-1.79-7.41a16.24,16.24,0,0,0-2.7-.07V38.52c4.79.15,9.73.3,14.52,0v1.73a11.45,11.45,0,0,0-3.22.22c-1.57.6-1.35,6.66-1.35,8.08V62.91c0,1.35-.22,7.49,1.35,8a22.58,22.58,0,0,0,3.22.15v1.79q-7.31-.23-14.59,0Z" transform="translate(-0.91 -1)"/><path class="cls-1" d="M311.12,72.86c-4.56-.15-9.27-.22-13.84,0V71.07c.53,0,1.13.07,1.65.07,1.12,0,2-.37,2-1.64,0-1.42-1.87-7.11-2.62-8.46H284.64c-.67,1.8-2.54,5.47-2.54,7.26A2.3,2.3,0,0,0,284,70.92H284c.74.07,1.42.15,2.17.15l-.23,1.79a110.47,110.47,0,0,0-11.07,0V71.07A3.9,3.9,0,0,0,278,69.65C279.18,68.3,290.33,42,292.35,38l2.39-.07c1.72,4.63,10.77,28.13,13.17,31.42a4.07,4.07,0,0,0,3.51,1.72v1.64ZM297.73,59.17c-1.87-4.86-3.81-9.65-5.91-14.36-2.39,4.71-4.34,9.5-6.51,14.36Z" transform="translate(-0.91 -1)"/><path class="cls-1" d="M321,71.07h3.22c2.54-.08,2-7.26,2-8.9v-13c0-1-.08-6.88-.38-7.56-.45-1.12-1.64-1.19-2.69-1.19-4.34,0-6.73,4-7.93,7.63-.75,0-1.57-.08-2.32-.15.6-3.15,1.27-6.21,1.87-9.36,1.57.08,3.22.15,4.79.15,6.43,0,12.79-.22,19.22-.22a57.82,57.82,0,0,1,6.29.45,54.79,54.79,0,0,0-2.39,9.2l-2.4-.3a18.13,18.13,0,0,0,.23-2.84c0-4.34-2.32-4.56-6-4.56-1,0-1.94,0-2.47,1-.37.75-.45,5.16-.45,6.21V62.69c0,1.57-.22,7.71,1.42,8.23a16.84,16.84,0,0,0,3.9.15v1.79q-8-.23-15.94,0Z" transform="translate(-0.91 -1)"/><path class="cls-1" d="M399,37.33c0-.83,0-1.72-.07-2.55-.6-6.8-4.87-10.17-11.6-10.17-4.79,0-9.58,2.24-9.58,7.63,0,3.44,2.7,5.54,5.39,7.18,2.39,1.5,4.94,2.85,7.48,4.19,6.66,3.44,15,6.81,15,15.79,0,9.72-9.13,14.29-17.81,14.29-6.21,0-13.46-1.2-18.25-5.54a88.64,88.64,0,0,0,3.14-11.6l2.32.3a22.9,22.9,0,0,0-.15,2.4c0,8.08,5.61,12,13.32,12a20.86,20.86,0,0,0,3-.22c4.34-.67,8.6-3.82,8.6-8.61,0-13.31-27.83-12.94-27.83-27.75,0-9.58,9.58-12.42,17.58-12.42a31.64,31.64,0,0,1,14.29,3.59,75.22,75.22,0,0,0-2.54,11.67Z" transform="translate(-0.91 -1)"/><path class="cls-1" d="M421.7,56.85v4.34a64.76,64.76,0,0,0,.22,7.63c.08,1,.3,2,1.42,2.17a12.12,12.12,0,0,0,2.32.15c6.36,0,11.52-.89,13.25-7.93l2.09.3a74.06,74.06,0,0,0-.67,9.2,28.82,28.82,0,0,1-3.59.15H411.6V71.07a3.91,3.91,0,0,0,.9.07c4.56,0,3.81-3.14,3.81-6.73V59.55c-1.57.74-3.14,1.57-4.79,2.32V59l4.79-2.31V48.4c0-1.72.53-7.63-1.64-8a19.12,19.12,0,0,0-2.92-.15V38.52c5.16.15,10.4.15,15.56,0v1.73c-1.05,0-3.82-.15-4.64.37-1.12,1.72-1,11-1,13.47,3.74-1.72,7.33-3.52,11.07-5.24v2.77Z" transform="translate(-0.91 -1)"/><path class="cls-1" d="M448.93,59.85V56.26c0-3.6.22-7.19-.07-10.7l-.08-.9L448.63,43c0-.3-.07-1-.07-1s-.08.15,0,.15c-.3-2.4-2.85-1.87-4.64-1.87V38.52q7.51.23,15,0v1.73a14.81,14.81,0,0,0-3.15.22,1.88,1.88,0,0,0-1.19,1.65c-.45,1.87-.38,6.58-.38,8.6v8.15c0,7,2,12.57,10,12.57,8.23,0,10.4-5.61,10.4-12.87V47.73c0-4.12-.08-7.19-4.94-7.48V38.52c4,.15,8.08.15,12,0v1.73c-3.21.15-3.74,1.49-4.26,4.33-1,5.39-.67,10.63-.67,16.16,0,9-5.09,12.72-13.7,12.72C453.94,73.46,448.93,69.27,448.93,59.85Z" transform="translate(-0.91 -1)"/><path class="cls-1" d="M484.39,71a5.47,5.47,0,0,0,1.12.15,7.83,7.83,0,0,0,1.87-.15c2.17-.52,1.87-5.68,1.87-7.4v-18c0-1.27-.29-4.79-1.64-5.38h-3.14V38.52c2.47.15,5,.15,7.48.15s4.93-.29,7.4-.29c6.21,0,13.92,1.42,13.92,9.2,0,10.62-11.22,9.87-18.78,9.87v4c0,1.2.22,7.86.6,8.53a2,2,0,0,0,1.42,1h3.14v1.79q-7.62-.23-15.26,0Zm13.32-15.33c6,0,9.8-1.8,9.8-8.31,0-4.56-2.92-7.4-7.48-7.4a16.68,16.68,0,0,0-3.89.37c-1.72.82-1.5,5.91-1.5,7.56v7.78Z" transform="translate(-0.91 -1)"/><path class="cls-1" d="M537.66,48.48c.22-5.24-2.62-8.68-8-8.68-3.21,0-6.51,1.27-6.51,5,0,7.33,19.9,8,19.9,18.63,0,7-7,10-13,10-4.64,0-9.8-.75-13.47-3.89A62.44,62.44,0,0,0,519,61.27l2.17.3a15.31,15.31,0,0,0-.07,1.79c0,5.61,4,8.08,9.2,8.08,3.51,0,7.93-1.72,7.93-5.83,0-9.2-19.9-8.83-19.9-19.08,0-6.88,7.4-8.68,12.94-8.68a25.62,25.62,0,0,1,10.55,2.47,53.19,53.19,0,0,0-1.87,8.3Z" transform="translate(-0.91 -1)"/><path class="cls-1" d="M558.16,56.71v8.15c0,1.65-.23,5.31,1.49,6.13a15.9,15.9,0,0,0,3.37.23v1.64q-7.51-.23-15,0V71.07h1.8c3.29.07,2.84-3.29,2.84-5.69V43.69c0-3.89-1.65-3.44-4.71-3.44V38.52c5,.15,10.1.3,15.11,0v1.73H560.1c-2.24,0-1.94,7.33-1.94,8.82v5.54C560.55,53,573,43.61,573,41.44c0-1.27-2.31-1.19-3.21-1.19V38.52c4.34.15,8.53.15,12.87,0v1.73c-3.59.07-7.19,3.29-9.8,5.46-2.85,2.39-5.92,4.56-8.91,6.81,4,4.48,8.16,8.75,12.35,13,2.17,2.25,5.53,5.54,8.83,5.54v1.87a56.31,56.31,0,0,0-9.36-.23c-4.71-6.2-10.77-11.52-16.16-17.13Z" transform="translate(-0.91 -1)"/><path class="cls-1" d="M586.66,71.07a17.33,17.33,0,0,0,3.37-.15l.67-.6h-.07c.59-1.27.59-4.71.59-6.21V47.73c0-1.65.38-7.11-1.79-7.41a16.15,16.15,0,0,0-2.69-.07V38.52c4.78.15,9.72.3,14.51,0v1.73a11.47,11.47,0,0,0-3.22.22c-1.57.6-1.34,6.66-1.34,8.08V62.91c0,1.35-.23,7.49,1.34,8a22.65,22.65,0,0,0,3.22.15v1.79q-7.29-.23-14.59,0Z" transform="translate(-0.91 -1)"/><path class="cls-1" d="M50.91,1a50,50,0,1,0,50,50A50.1,50.1,0,0,0,50.91,1ZM74,11.29C58.41,18.06,45.08,30.72,41,45.51c.54-8,1.24-16.6,1.79-24.62A5.88,5.88,0,0,1,42.93,19c.57-.33,1.54-.94,1.35-1.29-3.06,0-6.94,0-10,0-2.09.21-2.81.95-3,2.34-3.34-.16-4.68.56-4.36,2.46,1.93,0,4.27-.26,5,.45.27.52-.07.79-1,.53-.6-.36-2.18-.28-3.81.43-.72.31-2-.27-3.18-.48a3.11,3.11,0,0,0,1.43,1.85c.79.39,4.84.09,6.32.07l-2.36,1.77,4.8.89L23.36,52c-2.43-1.58-5-3.52-7.45-5.1,2.48-7.89.57-14-5.05-18.19C25.16,3.17,55.48-1,74,11.29ZM44,56.67c.62-19.93,12.18-31.16,27.45-39.6C79.24,33.9,69.82,56.66,44,56.67ZM35.86,20.2a1,1,0,0,1-1.88,0S35.87,20.21,35.86,20.2ZM9.34,30.74A12.38,12.38,0,0,1,14.05,45.1l-1.13-1c.84-4.76-.25-8.76-4.45-11.53Zm-1.69,4c2.59,2.12,3.66,4.52,3,7C9.38,40.17,6.92,36.88,6.86,37S7.66,34.73,7.65,34.71ZM6.06,39.84c1.8,2.09,3.47,4.19,5.26,6.29C8.81,49.59,7,51.51,4.66,51.87A55.08,55.08,0,0,1,6.06,39.84Zm4.39,33.89A50,50,0,0,1,4.78,54.68c3.57-.78,5.81-3.74,8.19-6.91A59.93,59.93,0,0,0,40,61.13c.74,8.82,5,15.4,11.28,21.06C41.27,86.57,23.53,85.64,10.45,73.73Zm7.79,9.85c10.23,5.25,24.59,6.62,37.6,1.58a63.31,63.31,0,0,0,17.61,6.31C57.8,100,35.34,100.43,18.24,83.58Zm61.3,3.67c-7.73-.37-14.45-1.45-17.75-4a46.17,46.17,0,0,1,26.4-5A39.64,39.64,0,0,1,79.54,87.25Zm-22.81-6.4c-5.92-4.06-10.45-9.82-12-19.43C74.85,57.24,83.21,39,75.57,12,104,34.41,99,57.9,90.85,74.48,78.76,73.14,67.63,75.47,56.73,80.85Z" transform="translate(-0.91 -1)"/></svg>